<?xml version="1.0" encoding="UTF-8" standalone="no"?>
<svg
   viewBox="0 0 1200 130"
   preserveAspectRatio="none"
   version="1.1"
   id="svg4"
   sodipodi:docname="pobrane.svg"
   inkscape:export-filename="pobrane.svg"
   inkscape:export-xdpi="96"
   inkscape:export-ydpi="96"
   width="1200"
   height="130"
   xmlns:inkscape="http://www.inkscape.org/namespaces/inkscape"
   xmlns:sodipodi="http://sodipodi.sourceforge.net/DTD/sodipodi-0.dtd"
   xmlns="http://www.w3.org/2000/svg"
   xmlns:svg="http://www.w3.org/2000/svg">
  <defs
     id="defs8" />
  <sodipodi:namedview
     id="namedview6"
     pagecolor="#ffffff"
     bordercolor="#000000"
     borderopacity="0.25"
     inkscape:showpageshadow="2"
     inkscape:pageopacity="0.0"
     inkscape:pagecheckerboard="0"
     inkscape:deskcolor="#d1d1d1"
     showgrid="false" />
  <path
     id="rect483"
     style="fill:#ffffff;fill-rule:evenodd;stroke-width:1.01818"
     d="m 0,70 h 1200 v 60 H 0 Z" />
  <path
     id="rect1363"
     style="fill:#000000;fill-opacity:1;fill-rule:evenodd;stroke-width:0.905137"
     d="M 618.37891,0.00195313 C 576.25323,0.07869958 534.11177,2.0216009 492.82422,5.6855469 434.85428,10.826465 378.56586,19.30231 320.43555,24.03125 A 601.56141,263.05608 0 0 1 0,11.515625 V 50 51.765625 130 C 140.17111,110.24787 249.82284,53.681489 686.71094,89.654297 747.32096,94.644842 1023.4709,129.45074 1200,125.74414 V 51.765625 50 41.433594 C 1132.2905,51.369622 1056.0586,48.039365 986.20117,39.980469 907.03372,30.85128 823.95552,12.881003 743.83594,5.5136719 702.61354,1.7138611 660.50458,-0.07474985 618.37891,0.00195313 Z" />
</svg>
